#N canvas -8 -8 1920 997 12;
#X obj 713 347 *~;
#X obj 1271 827 *~;
#X obj 1054 668 *~;
#X obj 498 392 +~;
#X obj 589 567 +~;
#X obj 634 685 +~;
#X obj 712 788 +~;
#X obj 680 121 *~ 2;
#X obj 842 276 *~ 3;
#X obj 1023 439 *~ 4;
#X obj 1238 593 *~ 5;
#X obj 92 13 inlet;
#X obj 857 928 outlet~;
#X obj 986 208 inlet;
#X obj 873 510 *~;
#X obj 1160 367 inlet;
#X obj 1348 528 inlet;
#X obj 1591 664 inlet, f 6;
#X obj 92 65 +~;
#X obj 154 14 inlet~;
#X obj 93 41 mtof~;
#X obj 1238 714 +~;
#X obj 1248 739 +~;
#X obj 1261 765 +~;
#X obj 1269 793 *~ 0.25;
#X obj 1238 681 *~;
#X obj 1323 682 *~;
#X obj 1386 709 *~;
#X obj 1506 681 *~;
#X obj 1256 652 r phasor;
#X obj 1341 653 r osc;
#X obj 1404 653 r square;
#X obj 1524 654 r noise;
#X obj 1506 626 noise~;
#X obj 1385 681 expr~ $v1 > 0.7;
#X obj 1237 625 phasor~;
#X obj 1322 625 osc~;
#X obj 1386 626 osc~;
#X obj 1024 558 +~;
#X obj 1034 583 +~;
#X obj 1047 609 +~;
#X obj 1055 637 *~ 0.25;
#X obj 1024 525 *~;
#X obj 1109 526 *~;
#X obj 1172 553 *~;
#X obj 1292 525 *~;
#X obj 1042 496 r phasor;
#X obj 1127 497 r osc;
#X obj 1190 497 r square;
#X obj 1310 498 r noise;
#X obj 1292 470 noise~;
#X obj 1171 525 expr~ $v1 > 0.7;
#X obj 1023 469 phasor~;
#X obj 1108 469 osc~;
#X obj 1172 470 osc~;
#X obj 843 400 +~;
#X obj 853 425 +~;
#X obj 866 451 +~;
#X obj 874 479 *~ 0.25;
#X obj 843 367 *~;
#X obj 928 368 *~;
#X obj 991 395 *~;
#X obj 1111 367 *~;
#X obj 861 338 r phasor;
#X obj 946 339 r osc;
#X obj 1009 339 r square;
#X obj 1129 340 r noise;
#X obj 1111 312 noise~;
#X obj 990 367 expr~ $v1 > 0.7;
#X obj 842 311 phasor~;
#X obj 927 311 osc~;
#X obj 991 312 osc~;
#X obj 681 239 +~;
#X obj 691 264 +~;
#X obj 704 290 +~;
#X obj 712 318 *~ 0.25;
#X obj 681 206 *~;
#X obj 766 207 *~;
#X obj 829 234 *~;
#X obj 949 206 *~;
#X obj 699 177 r phasor;
#X obj 784 178 r osc;
#X obj 847 178 r square;
#X obj 967 179 r noise;
#X obj 949 151 noise~;
#X obj 828 206 expr~ $v1 > 0.7;
#X obj 680 150 phasor~;
#X obj 765 150 osc~;
#X obj 829 151 osc~;
#X obj 493 228 *~;
#X obj 768 87 inlet;
#X obj 463 118 +~;
#X obj 473 143 +~;
#X obj 486 169 +~;
#X obj 494 197 *~ 0.25;
#X obj 462 86 *~;
#X obj 548 86 *~;
#X obj 611 113 *~;
#X obj 731 85 *~;
#X obj 481 56 r phasor;
#X obj 566 57 r osc;
#X obj 629 57 r square;
#X obj 749 58 r noise;
#X obj 731 30 noise~;
#X obj 610 85 expr~ $v1 > 0.7;
#X obj 462 29 phasor~;
#X obj 547 28 osc~;
#X obj 611 30 osc~;
#X obj 854 897 /~ 5;
#X floatatom 365 121 5 0 0 0 - - -;
#X connect 0 0 3 1;
#X connect 1 0 6 1;
#X connect 2 0 5 1;
#X connect 3 0 4 0;
#X connect 4 0 5 0;
#X connect 5 0 6 0;
#X connect 6 0 108 0;
#X connect 7 0 86 0;
#X connect 7 0 87 0;
#X connect 7 0 88 0;
#X connect 8 0 69 0;
#X connect 8 0 70 0;
#X connect 8 0 71 0;
#X connect 9 0 52 0;
#X connect 9 0 53 0;
#X connect 9 0 54 0;
#X connect 10 0 35 0;
#X connect 10 0 36 0;
#X connect 10 0 37 0;
#X connect 11 0 20 0;
#X connect 13 0 0 1;
#X connect 14 0 4 1;
#X connect 15 0 14 1;
#X connect 16 0 2 1;
#X connect 17 0 1 1;
#X connect 18 0 7 0;
#X connect 18 0 8 0;
#X connect 18 0 9 0;
#X connect 18 0 10 0;
#X connect 18 0 105 0;
#X connect 18 0 106 0;
#X connect 18 0 107 0;
#X connect 19 0 18 1;
#X connect 20 0 18 0;
#X connect 21 0 22 0;
#X connect 22 0 23 0;
#X connect 23 0 24 0;
#X connect 24 0 1 0;
#X connect 25 0 21 0;
#X connect 26 0 21 1;
#X connect 27 0 22 1;
#X connect 28 0 23 1;
#X connect 29 0 25 1;
#X connect 30 0 26 1;
#X connect 31 0 27 1;
#X connect 32 0 28 1;
#X connect 33 0 28 0;
#X connect 34 0 27 0;
#X connect 35 0 25 0;
#X connect 36 0 26 0;
#X connect 37 0 34 0;
#X connect 38 0 39 0;
#X connect 39 0 40 0;
#X connect 40 0 41 0;
#X connect 41 0 2 0;
#X connect 42 0 38 0;
#X connect 43 0 38 1;
#X connect 44 0 39 1;
#X connect 45 0 40 1;
#X connect 46 0 42 1;
#X connect 47 0 43 1;
#X connect 48 0 44 1;
#X connect 49 0 45 1;
#X connect 50 0 45 0;
#X connect 51 0 44 0;
#X connect 52 0 42 0;
#X connect 53 0 43 0;
#X connect 54 0 51 0;
#X connect 55 0 56 0;
#X connect 56 0 57 0;
#X connect 57 0 58 0;
#X connect 58 0 14 0;
#X connect 59 0 55 0;
#X connect 60 0 55 1;
#X connect 61 0 56 1;
#X connect 62 0 57 1;
#X connect 63 0 59 1;
#X connect 64 0 60 1;
#X connect 65 0 61 1;
#X connect 66 0 62 1;
#X connect 67 0 62 0;
#X connect 68 0 61 0;
#X connect 69 0 59 0;
#X connect 70 0 60 0;
#X connect 71 0 68 0;
#X connect 72 0 73 0;
#X connect 73 0 74 0;
#X connect 74 0 75 0;
#X connect 75 0 0 0;
#X connect 76 0 72 0;
#X connect 77 0 72 1;
#X connect 78 0 73 1;
#X connect 79 0 74 1;
#X connect 80 0 76 1;
#X connect 81 0 77 1;
#X connect 82 0 78 1;
#X connect 83 0 79 1;
#X connect 84 0 79 0;
#X connect 85 0 78 0;
#X connect 86 0 76 0;
#X connect 87 0 77 0;
#X connect 88 0 85 0;
#X connect 89 0 3 0;
#X connect 90 0 89 1;
#X connect 91 0 92 0;
#X connect 92 0 93 0;
#X connect 93 0 94 0;
#X connect 94 0 89 0;
#X connect 95 0 91 0;
#X connect 96 0 91 1;
#X connect 97 0 92 1;
#X connect 98 0 93 1;
#X connect 99 0 95 1;
#X connect 100 0 96 1;
#X connect 100 0 109 0;
#X connect 101 0 97 1;
#X connect 102 0 98 1;
#X connect 103 0 98 0;
#X connect 104 0 97 0;
#X connect 105 0 95 0;
#X connect 106 0 96 0;
#X connect 107 0 104 0;
#X connect 108 0 12 0;
