#N canvas -8 -8 1920 1117 16;
#X obj 14 66 mixing_fader2 1;
#X obj 1033 8 mixing_distribute2;
#X obj 166 66 mixing_fader2 2;
#X obj 311 66 mixing_fader2 3;
#X obj 468 66 mixing_fader2 4;
#X obj 606 127 s phasor;
#X obj 606 159 s osc;
#X obj 609 191 s square;
#X obj 611 225 s noise;
#X floatatom 735 46 5 0 0 0 - - -;
#X text 468 39 Noise;
#X text 311 39 Pulse;
#X text 166 39 Sine;
#X text 17 39 Phasor;
#X obj 806 675 *~;
#X obj 628 48 bng 15 250 50 0 empty empty empty 17 7 0 10 -262144 -1
-1;
#X obj 18 350 vsl 15 128 10 1000 1 0 empty empty empty 0 -9 0 10 -262144
-1 -1 6806 0;
#X obj 376 350 vsl 15 128 10 1000 1 0 empty empty empty 0 -9 0 10 -262144
-1 -1 6965 0;
#X obj 286 350 vsl 15 128 10 1000 1 0 empty empty empty 0 -9 0 10 -262144
-1 -1 3030 0;
#X obj 99 350 vsl 15 128 0.01 1 0 0 empty empty empty 0 -9 0 10 -262144
-1 -1 6286 0;
#X obj 185 350 vsl 15 128 10 1000 1 0 empty empty empty 0 -9 0 10 -262144
-1 -1 7971 0;
#X text 18 293 Attack;
#X text 286 293 Sustain;
#X text 376 293 release;
#X msg 612 306 118;
#X msg 614 335 0.5;
#X msg 609 363 180;
#X msg 606 393 30;
#X msg 608 428 125;
#X obj 62 274 bng 15 250 50 0 empty empty empty 17 7 0 10 -262144 -1
-1;
#X floatatom 18 320 5 0 0 0 - - -;
#X floatatom 99 320 5 0 0 0 - - -;
#X floatatom 185 320 5 0 0 0 - - -;
#X floatatom 286 320 5 0 0 0 - - -;
#X floatatom 376 320 5 0 0 0 - - -;
#X text 14 270 std;
#X text 14 250 Envelope;
#X obj 475 350 vsl 15 128 0.1 10 1 0 empty empty empty 0 -9 0 10 -262144
-1 -1 6350 0;
#X text 475 293 curve;
#X floatatom 475 320 5 0 0 0 - - -;
#X text 99 293 Decay 1;
#X text 185 293 Decay 2;
#X obj 20 12 bng 15 250 50 0 empty empty empty 17 7 0 10 -262144 -1
-1;
#X text 39 8 start;
#N canvas 603 85 580 988 oscStuff 0;
#X obj 203 304 oscparse;
#X msg 254 214 listen 0;
#X obj 203 268 netreceive -u -b;
#X obj 203 376 list trim;
#X obj 185 457 list split 1;
#X obj 105 591 outlet;
#X obj 197 74 inlet;
#X symbolatom 348 550 10 0 0 0 - - -;
#X floatatom 155 539 5 0 0 0 - - -;
#X obj 209 597 outlet;
#X obj 313 609 print;
#X msg 209 153 listen 2331;
#X connect 0 0 3 0;
#X connect 1 0 2 0;
#X connect 2 0 0 0;
#X connect 3 0 4 0;
#X connect 4 0 5 0;
#X connect 4 0 8 0;
#X connect 4 1 7 0;
#X connect 4 1 9 0;
#X connect 6 0 11 0;
#X connect 11 0 2 0;
#X restore 628 16 pd oscStuff;
#X msg 611 277 1;
#N canvas 813 202 770 834 envelope 0;
#X obj 301 302 +;
#X obj 226 413 vline~;
#X obj 219 456 pow~;
#X obj 159 246 inlet;
#X obj 226 245 inlet;
#X obj 294 244 inlet;
#X obj 359 244 inlet;
#X obj 425 242 inlet;
#X obj 493 241 inlet;
#X text 154 208 a;
#X text 240 210 d;
#X text 306 209 d2;
#X text 377 207 s;
#X text 437 208 r;
#X text 493 206 curve;
#X obj 219 494 outlet~;
#X obj 388 514 vline~;
#X obj 480 545 vline~;
#X msg 388 481 1 0 \$1 \, \$2 \$3 \$1 \, 0 0 \$6;
#X msg 481 512 \$2 0 \$6 \, 0 \$5 \$4;
#X obj 389 545 pow~ 1;
#X obj 483 577 pow~ 1;
#X obj 254 691 vline~;
#X msg 257 638 \$1 \$2 \, 0 \$4 \$3;
#X obj 226 351 pack f f f f f f;
#X msg 226 381 1 \$1 \, \$2 \$3 \$1 \, 0 \$6 \$3;
#X obj 349 275 +, f 2;
#X obj 355 312 +, f 2;
#X connect 1 0 2 0;
#X connect 2 0 15 0;
#X connect 3 0 24 0;
#X connect 3 0 26 0;
#X connect 4 0 24 1;
#X connect 5 0 0 0;
#X connect 5 0 24 4;
#X connect 5 0 24 2;
#X connect 5 0 26 1;
#X connect 6 0 0 1;
#X connect 6 0 27 1;
#X connect 7 0 24 5;
#X connect 8 0 2 1;
#X connect 16 0 20 0;
#X connect 17 0 21 0;
#X connect 18 0 16 0;
#X connect 19 0 17 0;
#X connect 23 0 22 0;
#X connect 24 0 25 0;
#X connect 25 0 1 0;
#X connect 26 0 27 0;
#X connect 27 0 24 3;
#X restore 669 518 pd envelope;
#X obj 1206 302 bng 15 250 50 0 empty empty empty 17 7 0 10 -262144
-1 -1;
#X obj 162 533 tgl 15 0 empty empty empty 17 7 0 10 -262144 -1 -1 0
1;
#X obj 1541 354 spigot;
#X obj 1209 327 tgl 15 0 empty empty empty 17 7 0 10 -262144 -1 -1
1 1;
#X obj 1220 10 loadbang;
#X obj 1213 354 spigot;
#X obj 18 533 hsl 128 15 0.2 1 0 0 empty empty empty -2 -8 0 10 -262144
-1 -1 0 0;
#X obj 1605 292 *;
#X obj 1656 292 *;
#X obj 1709 292 *;
#X obj 1762 291 *;
#X obj 1814 290 *;
#X floatatom 1605 319 5 0 0 0 - - -;
#X floatatom 1656 319 5 0 0 0 - - -;
#X floatatom 1709 319 5 0 0 0 - - -;
#X floatatom 1814 319 5 0 0 0 - - -;
#X floatatom 1762 319 5 0 0 0 - - -;
#X floatatom 1231 319 5 0 0 0 - - -;
#X floatatom 1284 319 5 0 0 0 - - -;
#X floatatom 1337 319 5 0 0 0 - - -;
#X floatatom 1443 319 5 0 0 0 - - -;
#X floatatom 1390 319 5 0 0 0 - - -;
#X obj 1231 291 -;
#X obj 1284 291 -;
#X obj 1337 291 -;
#X obj 1390 291 -;
#X obj 1443 291 -;
#X obj 1231 244 bng 15 250 50 0 empty empty empty 17 7 0 10 -262144
-1 -1;
#X obj 1230 212 * 0.2;
#X obj 1606 354 spigot;
#X obj 1671 354 spigot;
#X obj 1736 354 spigot;
#X obj 1801 354 spigot;
#X obj 1278 354 spigot;
#X obj 1343 354 spigot;
#X obj 1408 354 spigot;
#X obj 1473 354 spigot;
#X text 16 510 Klangfarbe;
#X text 162 508 mode;
#X msg 1632 263 1;
#X msg 1231 263 1;
#X obj 59 818 vsl 15 128 1 100 0 0 empty empty empty 0 -9 0 10 -262144
-1 -1 0 0;
#X obj 980 352 *~;
#X obj 93 818 vsl 15 128 1 100 0 0 empty empty empty 0 -9 0 10 -262144
-1 -1 0 0;
#X text 23 784 Freq Mod;
#X obj 23 816 tgl 15 0 empty empty empty 17 7 0 10 -262144 -1 -1 0
1;
#X obj 203 818 vsl 15 128 0 20 0 0 empty empty empty 0 -9 0 10 -262144
-1 -1 0 0;
#X obj 166 817 tgl 15 0 empty empty empty 17 7 0 10 -262144 -1 -1 0
1;
#X text 167 784 Amp Mod;
#X obj 358 818 vsl 15 128 1 100 0 0 empty empty empty 0 -9 0 10 -262144
-1 -1 0 0;
#X obj 392 818 vsl 15 128 1 100 0 0 empty empty empty 0 -9 0 10 -262144
-1 -1 0 0;
#X obj 322 816 tgl 15 0 empty empty empty 17 7 0 10 -262144 -1 -1 0
1;
#X text 322 784 Filter Mod;
#X obj 977 318 osc~;
#X obj 977 269 spigot;
#X msg 1044 269 0, f 1;
#X obj 1227 547 osc~;
#X obj 1228 576 +~ 1;
#X obj 810 701 *~;
#X obj 1227 517 spigot;
#X msg 1292 517 0, f 1;
#X obj 1200 770 *~;
#X obj 1201 740 osc~;
#X obj 1201 710 spigot;
#X msg 1264 709 0, f 1;
#X obj 358 687 hsl 128 15 20 20000 0 0 empty empty empty -2 -8 0 10
-262144 -1 -1 0 0;
#X obj 360 728 hsl 128 15 0 3.9 0 0 empty empty empty -2 -8 0 10 -262144
-1 -1 0 0;
#X obj 21 726 hsl 128 15 20 20000 0 0 empty empty empty -2 -8 0 10
-262144 -1 -1 0 0;
#X text 16 703 high pass;
#X text 354 664 low pass;
#X obj 172 689 hsl 128 15 20 20000 0 0 empty empty empty -2 -8 0 10
-262144 -1 -1 0 0;
#X text 168 666 bandpass;
#X obj 171 726 hsl 128 15 0 10 0 0 empty empty empty -2 -8 0 10 -262144
-1 -1 0 0;
#X obj 1199 802 snapshot~;
#X obj 1248 770 bang~;
#X text 167 706 width;
#X text 355 706 resonance;
#X text 18 651 Filters:;
#X obj 136 707 tgl 15 0 empty empty empty 17 7 0 10 -262144 -1 -1 0
1;
#N canvas 1216 133 450 300 toggle 0;
#X obj 147 54 inlet;
#X obj 68 57 inlet~;
#X text 68 27 Signal;
#X text 146 30 0 or 1;
#X obj 68 230 outlet~;
#X obj 150 230 outlet~;
#X obj 69 188 *~;
#X obj 151 187 *~;
#X obj 147 114 t f f;
#X obj 147 143 == 0;
#X obj 246 45 loadbang;
#X msg 248 77 0;
#X connect 0 0 8 0;
#X connect 1 0 6 0;
#X connect 1 0 7 0;
#X connect 6 0 4 0;
#X connect 7 0 5 0;
#X connect 8 0 9 0;
#X connect 8 1 7 1;
#X connect 9 0 6 1;
#X connect 10 0 11 0;
#X connect 11 0 8 0;
#X restore 809 745 pd toggle;
#X obj 896 774 hip~;
#X obj 907 745 +;
#X obj 896 838 vcf~;
#X obj 914 809 +;
#X obj 287 668 tgl 15 0 empty empty empty 17 7 0 10 -262144 -1 -1 0
1;
#X obj 896 901 bob~;
#X obj 914 872 +;
#X obj 473 666 tgl 15 0 empty empty empty 17 7 0 10 -262144 -1 -1 0
1;
#N canvas 1216 133 450 300 toggle 0;
#X obj 147 54 inlet;
#X obj 70 56 inlet~;
#X text 68 27 Signal;
#X text 146 30 0 or 1;
#X obj 68 230 outlet~;
#X obj 150 230 outlet~;
#X obj 69 188 *~;
#X obj 151 187 *~;
#X obj 147 114 t f f;
#X obj 147 143 == 0;
#X obj 246 45 loadbang;
#X msg 248 77 0;
#X connect 0 0 8 0;
#X connect 1 0 6 0;
#X connect 1 0 7 0;
#X connect 6 0 4 0;
#X connect 7 0 5 0;
#X connect 8 0 9 0;
#X connect 8 1 7 1;
#X connect 9 0 6 1;
#X connect 10 0 11 0;
#X connect 11 0 8 0;
#X restore 810 810 pd toggle;
#N canvas 1216 133 450 300 toggle 0;
#X obj 147 54 inlet;
#X obj 70 56 inlet~;
#X text 68 27 Signal;
#X text 146 30 0 or 1;
#X obj 68 230 outlet~;
#X obj 150 230 outlet~;
#X obj 69 188 *~;
#X obj 151 187 *~;
#X obj 147 114 t f f;
#X obj 147 143 == 0;
#X obj 246 45 loadbang;
#X msg 248 77 0;
#X connect 0 0 8 0;
#X connect 1 0 6 0;
#X connect 1 0 7 0;
#X connect 6 0 4 0;
#X connect 7 0 5 0;
#X connect 8 0 9 0;
#X connect 8 1 7 1;
#X connect 9 0 6 1;
#X connect 10 0 11 0;
#X connect 11 0 8 0;
#X restore 808 870 pd toggle;
#X obj 1031 129 + 7;
#X obj 129 588 tgl 15 0 empty empty empty 17 7 0 10 -262144 -1 -1 0
1;
#X obj 243 588 bng 15 250 50 0 empty empty empty 17 7 0 10 -262144
-1 -1;
#X obj 365 588 bng 15 250 50 0 empty empty empty 17 7 0 10 -262144
-1 -1;
#X msg 911 71 4;
#X msg 955 70 3;
#X text 14 587 Chord mode;
#X text 183 587 Major;
#X text 303 587 Minor;
#X obj 1072 486 AddSynth;
#X obj 945 551 *~ 0.33;
#X obj 735 74 change;
#X floatatom 735 103 5 0 0 0 - - -;
#X floatatom 911 102 5 0 0 0 - - -;
#X floatatom 806 251 3 0 0 0 - - -;
#X obj 735 219 route 1 2 3;
#X obj 735 157 list prepend 1;
#X obj 884 157 list prepend 2;
#X obj 1031 158 list prepend 3;
#X floatatom 770 251 3 0 0 0 - - -;
#X floatatom 735 251 3 0 0 0 - - -;
#N canvas 1216 133 450 300 toggle 0;
#X obj 147 54 inlet;
#X obj 70 56 inlet~;
#X text 68 27 Signal;
#X text 146 30 0 or 1;
#X obj 68 230 outlet~;
#X obj 150 230 outlet~;
#X obj 69 188 *~;
#X obj 151 187 *~;
#X obj 147 114 t f f;
#X obj 147 143 == 0;
#X obj 246 45 loadbang;
#X msg 248 77 0;
#X connect 0 0 8 0;
#X connect 1 0 6 0;
#X connect 1 0 7 0;
#X connect 6 0 4 0;
#X connect 7 0 5 0;
#X connect 8 0 9 0;
#X connect 8 1 7 1;
#X connect 9 0 6 1;
#X connect 10 0 11 0;
#X connect 11 0 8 0;
#X restore 858 516 pd toggle;
#N canvas 1216 133 450 300 toggle 0;
#X obj 147 54 inlet;
#X obj 70 56 inlet~;
#X text 68 27 Signal;
#X text 146 30 0 or 1;
#X obj 68 230 outlet~;
#X obj 150 230 outlet~;
#X obj 69 188 *~;
#X obj 151 187 *~;
#X obj 147 114 t f f;
#X obj 147 143 == 0;
#X obj 246 45 loadbang;
#X msg 248 77 0;
#X connect 0 0 8 0;
#X connect 1 0 6 0;
#X connect 1 0 7 0;
#X connect 6 0 4 0;
#X connect 7 0 5 0;
#X connect 8 0 9 0;
#X connect 8 1 7 1;
#X connect 9 0 6 1;
#X connect 10 0 11 0;
#X connect 11 0 8 0;
#X restore 964 516 pd toggle;
#N canvas 1216 133 450 300 toggle 0;
#X obj 147 54 inlet;
#X obj 70 56 inlet~;
#X text 68 27 Signal;
#X text 146 30 0 or 1;
#X obj 68 230 outlet~;
#X obj 150 230 outlet~;
#X obj 69 188 *~;
#X obj 151 187 *~;
#X obj 147 114 t f f;
#X obj 147 143 == 0;
#X obj 246 45 loadbang;
#X msg 248 77 0;
#X connect 0 0 8 0;
#X connect 1 0 6 0;
#X connect 1 0 7 0;
#X connect 6 0 4 0;
#X connect 7 0 5 0;
#X connect 8 0 9 0;
#X connect 8 1 7 1;
#X connect 9 0 6 1;
#X connect 10 0 11 0;
#X connect 11 0 8 0;
#X restore 1071 516 pd toggle;
#X obj 247 816 vsl 15 128 0 0.5 0 0 empty empty empty 0 -9 0 10 -262144
-1 -1 0 0;
#X obj 1229 608 *~;
#X obj 1201 668 -~;
#X msg 1201 639 1, f 2;
#X obj 1201 617 bng 15 250 50 0 empty empty empty 17 7 0 10 -262144
-1 -1;
#X text 1298 193 Klangfarbe linear und quadratisch;
#X text 1327 568 Amplitude lfo;
#X text 1342 759 Filter lfo;
#X text 980 239 Freq lfo;
#X text 771 192 for chord mode;
#X text 856 446 Voices;
#X text 957 791 Filter;
#X obj 811 934 dac~;
#X obj 965 487 AddSynth;
#X obj 851 488 AddSynth;
#X obj 619 843 bng 15 250 50 0 empty empty empty 17 7 0 10 -262144
-1 -1;
#X obj 884 129 +;
#X obj 839 69 bng 15 250 50 0 empty empty empty 17 7 0 10 -262144 -1
-1;
#X obj 1562 298 bng 15 250 50 0 empty empty empty 17 7 0 10 -262144
-1 -1;
#X obj 1565 323 tgl 15 0 empty empty empty 17 7 0 10 -262144 -1 -1
0 1;
#X connect 0 0 5 0;
#X connect 2 0 6 0;
#X connect 3 0 7 0;
#X connect 4 0 8 0;
#X connect 9 0 148 0;
#X connect 14 0 105 0;
#X connect 15 0 18 0;
#X connect 15 0 20 0;
#X connect 15 0 16 0;
#X connect 15 0 19 0;
#X connect 15 0 17 0;
#X connect 16 0 30 0;
#X connect 16 0 46 0;
#X connect 17 0 34 0;
#X connect 17 0 46 4;
#X connect 18 0 33 0;
#X connect 18 0 46 3;
#X connect 19 0 31 0;
#X connect 19 0 46 1;
#X connect 20 0 32 0;
#X connect 20 0 46 2;
#X connect 24 0 16 0;
#X connect 25 0 19 0;
#X connect 26 0 20 0;
#X connect 27 0 18 0;
#X connect 28 0 17 0;
#X connect 29 0 24 0;
#X connect 29 0 25 0;
#X connect 29 0 26 0;
#X connect 29 0 27 0;
#X connect 29 0 28 0;
#X connect 29 0 45 0;
#X connect 37 0 39 0;
#X connect 37 0 46 5;
#X connect 42 0 44 0;
#X connect 44 0 15 0;
#X connect 44 1 9 0;
#X connect 45 0 37 0;
#X connect 46 0 14 0;
#X connect 47 0 50 0;
#X connect 48 0 47 0;
#X connect 48 0 179 0;
#X connect 49 0 174 2;
#X connect 49 0 146 2;
#X connect 49 0 175 2;
#X connect 50 0 52 1;
#X connect 50 0 80 1;
#X connect 50 0 81 1;
#X connect 50 0 82 1;
#X connect 50 0 83 1;
#X connect 51 0 29 0;
#X connect 51 0 47 0;
#X connect 51 0 165 0;
#X connect 51 0 107 0;
#X connect 51 0 111 0;
#X connect 51 0 102 0;
#X connect 51 0 74 0;
#X connect 51 0 75 0;
#X connect 52 0 174 2;
#X connect 52 0 146 2;
#X connect 52 0 175 2;
#X connect 53 0 75 0;
#X connect 53 0 54 0;
#X connect 53 0 55 0;
#X connect 53 0 56 0;
#X connect 53 0 57 0;
#X connect 53 0 58 0;
#X connect 54 0 59 0;
#X connect 54 0 55 1;
#X connect 54 0 55 0;
#X connect 55 0 60 0;
#X connect 55 0 56 1;
#X connect 56 0 61 0;
#X connect 56 0 57 1;
#X connect 57 0 63 0;
#X connect 57 0 58 1;
#X connect 58 0 62 0;
#X connect 59 0 49 0;
#X connect 60 0 76 0;
#X connect 61 0 77 0;
#X connect 62 0 79 0;
#X connect 63 0 78 0;
#X connect 64 0 52 0;
#X connect 65 0 80 0;
#X connect 66 0 81 0;
#X connect 67 0 83 0;
#X connect 68 0 82 0;
#X connect 69 0 64 0;
#X connect 69 0 70 0;
#X connect 70 0 65 0;
#X connect 70 0 71 0;
#X connect 71 0 66 0;
#X connect 71 0 72 0;
#X connect 72 0 68 0;
#X connect 72 0 73 0;
#X connect 73 0 67 0;
#X connect 74 0 87 0;
#X connect 74 0 86 0;
#X connect 75 0 74 0;
#X connect 75 0 69 1;
#X connect 75 0 70 1;
#X connect 75 0 71 1;
#X connect 75 0 72 1;
#X connect 75 0 73 1;
#X connect 76 0 174 3;
#X connect 76 0 146 3;
#X connect 76 0 175 3;
#X connect 77 0 174 4;
#X connect 77 0 146 4;
#X connect 77 0 175 4;
#X connect 78 0 174 5;
#X connect 78 0 146 5;
#X connect 78 0 175 5;
#X connect 79 0 174 6;
#X connect 79 0 146 6;
#X connect 79 0 175 6;
#X connect 80 0 174 3;
#X connect 80 0 146 3;
#X connect 80 0 175 3;
#X connect 81 0 174 4;
#X connect 81 0 146 4;
#X connect 81 0 175 4;
#X connect 82 0 174 5;
#X connect 82 0 146 5;
#X connect 82 0 175 5;
#X connect 83 0 174 6;
#X connect 83 0 146 6;
#X connect 83 0 175 6;
#X connect 86 0 54 1;
#X connect 87 0 69 0;
#X connect 88 0 101 0;
#X connect 89 0 174 1;
#X connect 89 0 146 1;
#X connect 89 0 175 1;
#X connect 90 0 89 1;
#X connect 92 0 101 1;
#X connect 92 0 102 0;
#X connect 93 0 106 0;
#X connect 94 0 106 1;
#X connect 94 0 107 0;
#X connect 94 0 165 0;
#X connect 94 0 176 0;
#X connect 96 0 110 0;
#X connect 97 0 108 1;
#X connect 98 0 111 0;
#X connect 98 0 110 1;
#X connect 100 0 89 0;
#X connect 101 0 100 0;
#X connect 102 0 100 0;
#X connect 103 0 104 0;
#X connect 104 0 162 0;
#X connect 105 0 126 0;
#X connect 106 0 103 0;
#X connect 107 0 103 0;
#X connect 108 0 120 0;
#X connect 109 0 108 0;
#X connect 110 0 109 0;
#X connect 111 0 109 0;
#X connect 112 0 133 0;
#X connect 113 0 132 2;
#X connect 114 0 128 0;
#X connect 117 0 130 0;
#X connect 119 0 129 2;
#X connect 120 0 133 1;
#X connect 120 0 130 1;
#X connect 120 0 128 1;
#X connect 121 0 120 0;
#X connect 125 0 126 1;
#X connect 126 0 135 0;
#X connect 126 1 127 0;
#X connect 127 0 135 0;
#X connect 128 0 127 1;
#X connect 129 0 136 0;
#X connect 130 0 129 1;
#X connect 131 0 135 1;
#X connect 132 0 173 0;
#X connect 132 0 173 1;
#X connect 133 0 132 1;
#X connect 134 0 136 1;
#X connect 135 0 136 0;
#X connect 135 1 129 0;
#X connect 136 0 173 0;
#X connect 136 0 173 1;
#X connect 136 1 132 0;
#X connect 137 0 155 0;
#X connect 138 0 158 1;
#X connect 138 0 159 1;
#X connect 138 0 160 1;
#X connect 139 0 141 0;
#X connect 140 0 142 0;
#X connect 141 0 150 0;
#X connect 142 0 150 0;
#X connect 146 0 160 0;
#X connect 147 0 14 1;
#X connect 148 0 149 0;
#X connect 149 0 137 0;
#X connect 149 0 153 0;
#X connect 149 0 177 0;
#X connect 150 0 177 1;
#X connect 150 0 178 0;
#X connect 152 0 157 0;
#X connect 152 0 175 0;
#X connect 152 1 156 0;
#X connect 152 1 174 0;
#X connect 152 2 151 0;
#X connect 152 2 146 0;
#X connect 153 0 152 0;
#X connect 154 0 152 0;
#X connect 155 0 152 0;
#X connect 158 0 14 1;
#X connect 158 1 147 0;
#X connect 159 1 147 0;
#X connect 160 1 147 0;
#X connect 161 0 162 1;
#X connect 161 0 165 0;
#X connect 162 0 163 1;
#X connect 163 0 105 1;
#X connect 164 0 163 0;
#X connect 165 0 164 0;
#X connect 174 0 159 0;
#X connect 175 0 158 0;
#X connect 176 0 93 0;
#X connect 177 0 154 0;
#X connect 178 0 177 0;
#X connect 179 0 180 0;
#X connect 180 0 49 1;
#X connect 180 0 76 1;
#X connect 180 0 77 1;
#X connect 180 0 78 1;
#X connect 180 0 79 1;
#X coords 0 -1 1 1 600 977 2 0 0;
