#N canvas 492 341 663 414 10;
#X obj 116 264 s distribute2;
#X obj 150 50 r share2;
#X obj 134 96 route 1 2 3 4;
#X obj 128 158 +;
#X obj 145 129 t b f;
#X obj 162 193 +;
#X obj 179 164 t b f;
#X obj 195 225 +;
#X obj 212 196 t b f;
#X connect 1 0 2 0;
#X connect 2 0 3 0;
#X connect 2 1 4 0;
#X connect 2 2 6 0;
#X connect 2 3 8 0;
#X connect 3 0 5 0;
#X connect 4 0 3 0;
#X connect 4 1 3 1;
#X connect 5 0 7 0;
#X connect 6 0 3 0;
#X connect 6 1 5 1;
#X connect 7 0 0 0;
#X connect 8 0 3 0;
#X connect 8 1 7 1;
