#N canvas 142 473 1509 1379 36;
#X obj 71 744 +~;
#X obj 66 851 +~;
#X obj 166 855 +~;
#X obj 540 836 *~ 0.25;
#X obj 112 1158 vu 15 120 empty empty -1 -8 0 10 -66577 -1 1 0;
#X obj 48 638 *~;
#X obj 306 616 *~;
#X obj 612 672 *~;
#X obj 909 641 *~;
#X obj 616 484 osc~ 440;
#X obj 26 -29 mixing_fader2 1;
#X obj 512 1106 dac~;
#X obj 1040 317 mixing_distribute2;
#X obj 325 -25 mixing_fader2 2;
#X obj 612 -20 mixing_fader2 3;
#X obj 890 -20 mixing_fader2 4;
#X obj 58 977 env~;
#X obj 61 1065 - 100;
#X obj 26 157 s phasor;
#X obj 70 567 r phasor;
#X obj 49 307 vsl 15 128 0 127 0 0 empty empty empty 0 -9 0 10 -262144
-1 -1 0 1;
#X obj 327 158 s osc;
#X obj 369 551 r osc;
#X obj 609 165 s square;
#X obj 22 495 phasor~;
#X obj 675 559 r square;
#X obj 894 163 s noise;
#X obj 976 563 r noise;
#X obj 907 490 noise~;
#X obj 304 495 osc~;
#X obj 309 303 vsl 15 128 0 127 0 0 empty empty empty 0 -9 0 10 -262144
-1 -1 0 1;
#X obj 608 308 vsl 15 128 0 127 0 0 empty empty empty 0 -9 0 10 -262144
-1 -1 0 1;
#X obj 908 323 vsl 15 128 0 127 0 0 empty empty empty 0 -9 0 10 -262144
-1 -1 0 1;
#X obj 520 556 >~ 0.7;
#X connect 0 0 1 0;
#X connect 1 0 2 0;
#X connect 2 0 3 0;
#X connect 3 0 11 0;
#X connect 3 0 11 1;
#X connect 3 0 16 0;
#X connect 5 0 0 0;
#X connect 6 0 0 1;
#X connect 7 0 1 1;
#X connect 8 0 2 1;
#X connect 10 0 18 0;
#X connect 13 0 21 0;
#X connect 14 0 23 0;
#X connect 16 0 17 0;
#X connect 17 0 4 0;
#X connect 19 0 5 1;
#X connect 20 0 24 0;
#X connect 22 0 6 1;
#X connect 24 0 5 0;
#X connect 25 0 7 1;
#X connect 27 0 8 1;
#X connect 28 0 8 0;
#X connect 29 0 6 0;
#X connect 30 0 29 0;
#X connect 31 0 9 0;
#X connect 32 0 28 0;
