#N canvas 210 152 564 628 10;
#X obj 105 120 vsl 15 128 0 1 0 0 empty empty empty 0 -9 0 10 -262144
-1 -1 2800 1;
#X obj 336 93 loadbang;
#X obj 336 114 \$1;
#X obj 129 430 pack f f;
#X obj 51 441 outlet;
#X obj 118 377 t b f;
#X obj 129 460 s share2;
#X obj 194 92 r distribute2;
#X obj 221 181 /;
#X obj 225 143 t b f;
#X obj 122 184 vsl 8 64 0 1 0 0 empty empty empty 0 -9 0 10 -262144
-1 -1 0 1;
#X text 121 131 <hunger;
#X text 131 184 <cake;
#X msg 299 293 \$1 20;
#X obj 299 325 line~;
#X obj 299 432 outlet~;
#X obj 218 253 *;
#X obj 218 226 t b f;
#X obj 175 183 vsl 8 64 0 1 0 0 empty empty empty 0 -9 0 10 -262144
-1 -1 0 1;
#X text 134 228 eaten>;
#X connect 0 0 8 0;
#X connect 0 0 5 0;
#X connect 0 0 16 0;
#X connect 1 0 2 0;
#X connect 2 0 3 0;
#X connect 3 0 6 0;
#X connect 5 0 3 0;
#X connect 5 1 3 1;
#X connect 7 0 9 0;
#X connect 8 0 4 0;
#X connect 8 0 10 0;
#X connect 8 0 17 0;
#X connect 9 0 8 0;
#X connect 9 1 8 1;
#X connect 13 0 14 0;
#X connect 14 0 15 0;
#X connect 16 0 13 0;
#X connect 16 0 18 0;
#X connect 17 0 16 0;
#X connect 17 1 16 1;
#X coords 0 -1 1 1 85 160 2 100 100;
